<svg width="79" height="16" viewBox="0 0 79 16" fill="none" xmlns="http://www.w3.org/2000/svg">
    <path d="M1.50009 0H7.50009V6H1.50009V0ZM3.50009 2V4H5.50009V2H3.50009ZM9.50009 2.00001L19.5001 2V4L9.50009 4.00001V2.00001ZM9.50009 10H19.5001V12H9.50009V10ZM3.49997 15.0019L0 11.5019L1.414 10.0879L3.49997 12.1739L8.08596 7.5879L9.49999 9.0019L3.49997 15.0019Z" fill="white"/>
    <path d="M32.3809 3.70801H29.332V12H27.2812V3.70801H24.2734V2.04688H32.3809V3.70801Z" fill="white"/>
    <path d="M31.6973 8.2334C31.6973 7.49967 31.8385 6.8457 32.1211 6.27148C32.4036 5.69727 32.8092 5.25293 33.3379 4.93848C33.8711 4.62402 34.4886 4.4668 35.1904 4.4668C36.1885 4.4668 37.002 4.77214 37.6309 5.38281C38.2643 5.99349 38.6175 6.82292 38.6904 7.87109L38.7041 8.37695C38.7041 9.51172 38.3874 10.4232 37.7539 11.1113C37.1204 11.7949 36.2705 12.1367 35.2041 12.1367C34.1377 12.1367 33.2855 11.7949 32.6475 11.1113C32.014 10.4277 31.6973 9.49805 31.6973 8.32227V8.2334ZM33.6729 8.37695C33.6729 9.07878 33.805 9.61654 34.0693 9.99023C34.3337 10.3594 34.7119 10.5439 35.2041 10.5439C35.6826 10.5439 36.0563 10.3617 36.3252 9.99707C36.5941 9.62793 36.7285 9.04004 36.7285 8.2334C36.7285 7.54525 36.5941 7.01204 36.3252 6.63379C36.0563 6.25553 35.6781 6.06641 35.1904 6.06641C34.7074 6.06641 34.3337 6.25553 34.0693 6.63379C33.805 7.00749 33.6729 7.58854 33.6729 8.37695Z" fill="white"/>
    <path d="M40.0508 12V2.04688H43.1133C43.9883 2.04688 44.7699 2.24512 45.458 2.6416C46.1507 3.03353 46.6908 3.59408 47.0781 4.32324C47.4655 5.04785 47.6592 5.87272 47.6592 6.79785V7.25586C47.6592 8.18099 47.4678 9.00358 47.085 9.72363C46.7067 10.4437 46.1712 11.002 45.4785 11.3984C44.7858 11.7949 44.0042 11.9954 43.1338 12H40.0508ZM42.1016 3.70801V10.3525H43.0928C43.8949 10.3525 44.5078 10.0905 44.9316 9.56641C45.3555 9.04232 45.5719 8.29264 45.5811 7.31738V6.79102C45.5811 5.7793 45.3714 5.01367 44.9521 4.49414C44.5329 3.97005 43.9199 3.70801 43.1133 3.70801H42.1016Z" fill="white"/>
    <path d="M48.7188 8.2334C48.7188 7.49967 48.86 6.8457 49.1426 6.27148C49.4251 5.69727 49.8307 5.25293 50.3594 4.93848C50.8926 4.62402 51.5101 4.4668 52.2119 4.4668C53.21 4.4668 54.0234 4.77214 54.6523 5.38281C55.2858 5.99349 55.639 6.82292 55.7119 7.87109L55.7256 8.37695C55.7256 9.51172 55.4089 10.4232 54.7754 11.1113C54.1419 11.7949 53.292 12.1367 52.2256 12.1367C51.1592 12.1367 50.307 11.7949 49.6689 11.1113C49.0355 10.4277 48.7188 9.49805 48.7188 8.32227V8.2334ZM50.6943 8.37695C50.6943 9.07878 50.8265 9.61654 51.0908 9.99023C51.3551 10.3594 51.7334 10.5439 52.2256 10.5439C52.7041 10.5439 53.0778 10.3617 53.3467 9.99707C53.6156 9.62793 53.75 9.04004 53.75 8.2334C53.75 7.54525 53.6156 7.01204 53.3467 6.63379C53.0778 6.25553 52.6995 6.06641 52.2119 6.06641C51.7288 6.06641 51.3551 6.25553 51.0908 6.63379C50.8265 7.00749 50.6943 7.58854 50.6943 8.37695Z" fill="white"/>
    <path d="M62.5137 12H60.5312V1.5H62.5137V12Z" fill="white"/>
    <path d="M66.2324 12H64.25V4.60352H66.2324V12ZM64.1338 2.68945C64.1338 2.39323 64.2318 2.14941 64.4277 1.95801C64.6283 1.7666 64.8994 1.6709 65.2412 1.6709C65.5785 1.6709 65.8473 1.7666 66.0479 1.95801C66.2484 2.14941 66.3486 2.39323 66.3486 2.68945C66.3486 2.99023 66.2461 3.23633 66.041 3.42773C65.8405 3.61914 65.5739 3.71484 65.2412 3.71484C64.9085 3.71484 64.6396 3.61914 64.4346 3.42773C64.234 3.23633 64.1338 2.99023 64.1338 2.68945Z" fill="white"/>
    <path d="M71.8721 9.95605C71.8721 9.71452 71.7513 9.52539 71.5098 9.38867C71.2728 9.2474 70.89 9.12207 70.3613 9.0127C68.6022 8.64355 67.7227 7.89616 67.7227 6.77051C67.7227 6.11426 67.9938 5.56738 68.5361 5.12988C69.083 4.68783 69.7962 4.4668 70.6758 4.4668C71.6146 4.4668 72.3643 4.68783 72.9248 5.12988C73.4899 5.57194 73.7725 6.14616 73.7725 6.85254H71.7969C71.7969 6.56999 71.7057 6.33757 71.5234 6.15527C71.3411 5.96842 71.0563 5.875 70.6689 5.875C70.3363 5.875 70.0788 5.9502 69.8965 6.10059C69.7142 6.25098 69.623 6.44238 69.623 6.6748C69.623 6.89355 69.7256 7.07129 69.9307 7.20801C70.1403 7.34017 70.4912 7.45638 70.9834 7.55664C71.4756 7.65234 71.8903 7.76172 72.2275 7.88477C73.2712 8.26758 73.793 8.93066 73.793 9.87402C73.793 10.5485 73.5036 11.0954 72.9248 11.5146C72.346 11.9294 71.5986 12.1367 70.6826 12.1367C70.0628 12.1367 69.5114 12.0273 69.0283 11.8086C68.5498 11.5853 68.1738 11.2822 67.9004 10.8994C67.627 10.512 67.4902 10.0951 67.4902 9.64844H69.3633C69.3815 9.99935 69.5114 10.2682 69.7529 10.4551C69.9945 10.6419 70.318 10.7354 70.7236 10.7354C71.1019 10.7354 71.3867 10.6647 71.5781 10.5234C71.7741 10.3776 71.8721 10.1885 71.8721 9.95605Z" fill="white"/>
    <path d="M77.4365 2.78516V4.60352H78.7012V6.05273H77.4365V9.74414C77.4365 10.0176 77.4889 10.2135 77.5938 10.332C77.6986 10.4505 77.8991 10.5098 78.1953 10.5098C78.4141 10.5098 78.6077 10.4938 78.7764 10.4619V11.959C78.389 12.0775 77.9902 12.1367 77.5801 12.1367C76.1947 12.1367 75.4883 11.4372 75.4609 10.0381V6.05273H74.3809V4.60352H75.4609V2.78516H77.4365Z" fill="white"/>
</svg>
